<?xml version="1.0" encoding="UTF-8"?>
<svg width="400" height="225" viewBox="0 0 400 225" fill="none" xmlns="http://www.w3.org/2000/svg">
  <!-- Background gradient -->
  <rect width="400" height="225" rx="8" fill="url(#product-gradient)"/>
  
  <!-- Grid pattern -->
  <path d="M0 0h400v225H0z" fill="url(#grid)" opacity="0.1"/>
  
  <!-- Product header -->
  <rect x="40" y="30" width="320" height="40" rx="4" fill="white" opacity="0.9"/>
  <rect x="50" y="45" width="180" height="10" rx="2" fill="#0f172a" opacity="0.7"/>
  
  <!-- Product image -->
  <rect x="40" y="90" width="180" height="105" rx="8" fill="white" opacity="0.9"/>
  <circle cx="130" cy="142" r="40" fill="#a855f7" opacity="0.2"/>
  <circle cx="130" cy="142" r="30" fill="#a855f7" opacity="0.4"/>
  <circle cx="130" cy="142" r="20" fill="#a855f7" opacity="0.6"/>
  
  <!-- Feature list -->
  <rect x="240" y="90" width="120" height="105" rx="4" fill="white" opacity="0.8"/>
  
  <!-- Feature items -->
  <circle cx="250" cy="110" r="5" fill="#a855f7"/>
  <rect x="265" y="107" width="80" height="6" rx="2" fill="#0f172a" opacity="0.6"/>
  
  <circle cx="250" cy="130" r="5" fill="#a855f7"/>
  <rect x="265" cy="127" width="70" height="6" rx="2" fill="#0f172a" opacity="0.6"/>
  
  <circle cx="250" cy="150" r="5" fill="#a855f7"/>
  <rect x="265" cy="147" width="75" height="6" rx="2" fill="#0f172a" opacity="0.6"/>
  
  <circle cx="250" cy="170" r="5" fill="#a855f7"/>
  <rect x="265" cy="167" width="65" height="6" rx="2" fill="#0f172a" opacity="0.6"/>
  
  <!-- Definitions -->
  <defs>
    <linearGradient id="product-gradient" x1="0" y1="0" x2="400" y2="225" gradientUnits="userSpaceOnUse">
      <stop offset="0" stop-color="#f3e8ff"/>
      <stop offset="1" stop-color="#d8b4fe"/>
    </linearGradient>
    <pattern id="grid" patternUnits="userSpaceOnUse" width="20" height="20" patternTransform="scale(2)">
      <path d="M20 0L0 0L0 20" stroke="#a855f7" stroke-width="0.5" fill="none" opacity="0.5"/>
    </pattern>
  </defs>
</svg>
